<?xml version="1.0" encoding="utf-8"?>
<svg width="48" height="48" version="1.1" viewBox="0 0 12.7 12.7" xmlns="http://www.w3.org/2000/svg">
    <title>Prism Launcher Logo</title>
    <g stroke-width=".26458">
        <path d="m6.35 6.35" fill="#99cd61"/>
        <path d="m6.35 0.52917-2.5208 4.3656 2.5208 1.4552 2.5203-1.4552 0.10955-3.0996c-1.1511-0.66459-2.3388-1.2661-2.6298-1.2661z"
              style="fill: rgb(245, 194, 231);"/>
        <path d="m8.9798 1.7952-2.6298 4.5548 2.5203 1.4552 2.5208-4.3656c-0.14552-0.25205-1.2601-0.97975-2.4112-1.6443z"
              style="fill: rgb(242, 205, 205);"/>
        <path d="m11.391 3.4396-5.041 2.9104 2.5203 1.4552 2.7389-1.4552c0-1.3292-0.072554-2.6584-0.21808-2.9104z"
              style="fill: rgb(245, 224, 220);"/>
        <path d="m6.35 6.35v2.9104h5.041c0.14552-0.25205 0.21807-1.5812 0.21808-2.9104h-5.2591z"
              style="fill: rgb(255, 241, 233);"/>
        <path d="m6.35 6.35v2.9104l2.6298 1.6443c1.1511-0.66459 2.2657-1.3923 2.4112-1.6443l-5.041-2.9104z"
              style="fill: rgb(249, 246, 243);"/>
        <path d="m6.35 6.35-2.5208 1.4552 2.5208 4.3656c0.29104 0 1.4787-0.60148 2.6298-1.2661l-2.6298-4.5548z"
              style="fill: rgb(252, 252, 252);"/>
        <path d="m3.8292 4.8948-2.5203 4.3656c0.29104 0.5041 4.459 2.9104 5.041 2.9104v-5.8208l-2.5208-1.4552z"
              fill="#4d3f33"/>
        <path d="m1.309 3.4396c-0.29104 0.5041-0.29104 5.3167 0 5.8208l5.041-2.9104v-2.9104h-5.041z" fill="#7a573b"/>
        <path d="m6.35 0.52917c-0.58208-2e-8 -4.75 2.4063-5.041 2.9104l5.041 2.9104v-5.8208z"
              style="fill: rgb(203, 166, 247);"/>
    </g>
</svg>